<?xml version="1.0" encoding="iso-8859-1"?>
<!-- Generator: Adobe Illustrator 19.0.0, SVG Export Plug-In . SVG Version: 6.00 Build 0)  -->
<svg version="1.1" id="Layer_1" xmlns="http://www.w3.org/2000/svg" xmlns:xlink="http://www.w3.org/1999/xlink" x="0px" y="0px"
	 viewBox="0 0 121.432 121.432" style="enable-background:new 0 0 121.432 121.432;" xml:space="preserve">
<g>
	<polygon style="fill:#FC6500;" points="75.597,10.488 60.278,10.488 60.278,14.453 60.278,18.419 75.597,18.419 73.064,14.453 	"/>
	<path style="fill:#FFCE9D;" d="M61.633,26.38c0,0.284-0.411,0.514-0.917,0.514l0,0c-0.506,0-0.917-0.23-0.917-0.514V8.575
		c0-0.284,0.411-0.514,0.917-0.514l0,0c0.506,0,0.917,0.23,0.917,0.514V26.38z"/>
	<path style="fill:#BFA76F;" d="M94.654,40.374c-0.057-0.217-0.206-0.403-0.413-0.516L61.159,21.934
		c-0.274-0.149-0.613-0.149-0.887,0L27.191,39.857c-0.208,0.112-0.356,0.298-0.413,0.516c-0.057,0.217-0.016,0.446,0.113,0.636
		l2.896,4.246c0.162,0.237,0.442,0.38,0.744,0.38h60.37c0.301,0,0.581-0.144,0.744-0.38l2.896-4.246
		C94.67,40.819,94.71,40.59,94.654,40.374z"/>
	<path style="fill:#FFCE9D;" d="M87.51,41.47c-0.045-0.172-0.162-0.32-0.326-0.409L61.066,26.87c-0.216-0.118-0.484-0.118-0.7,0
		L34.248,41.062c-0.164,0.089-0.282,0.236-0.326,0.409c-0.045,0.171-0.013,0.353,0.089,0.503l2.287,3.361
		c0.127,0.188,0.349,0.301,0.587,0.301h47.663c0.238,0,0.459-0.114,0.587-0.301l2.287-3.361
		C87.523,41.822,87.555,41.641,87.51,41.47z"/>
	<g>
		<g>
			<polygon style="fill:#BFA76F;" points="37.141,49.214 29.358,49.214 30.887,55.318 37.141,55.318 43.395,55.318 44.923,49.214 
							"/>
			<rect x="32.294" y="55.318" style="fill:#FC6500;" width="9.615" height="3.155"/>
			<polygon style="fill:#BFA76F;" points="37.141,87.455 28.466,87.455 30.17,81.351 37.141,81.351 44.111,81.351 45.815,87.455 			
				"/>
			<rect x="31.739" y="78.196" style="fill:#FC6500;" width="10.717" height="3.155"/>
			<polygon style="fill:#FFCE9D;" points="40.306,58.472 37.097,58.472 33.889,58.472 32.947,78.196 37.097,78.196 41.248,78.196 
							"/>
		</g>
		<g>
			<polygon style="fill:#BFA76F;" points="84.291,49.214 76.508,49.214 78.037,55.318 84.291,55.318 90.545,55.318 92.074,49.214 
							"/>
			<rect x="79.444" y="55.318" style="fill:#FC6500;" width="9.615" height="3.155"/>
			<polygon style="fill:#BFA76F;" points="84.291,87.455 75.616,87.455 77.32,81.351 84.291,81.351 91.262,81.351 92.966,87.455 			
				"/>
			<rect x="78.889" y="78.196" style="fill:#FC6500;" width="10.717" height="3.155"/>
			<polygon style="fill:#FFCE9D;" points="87.457,58.472 84.248,58.472 81.039,58.472 80.097,78.196 84.248,78.196 88.398,78.196 
							"/>
		</g>
	</g>
	<g>
		<circle style="fill:#BFA76F;" cx="60.716" cy="56.513" r="2.433"/>
		<circle style="fill:#BFA76F;" cx="60.716" cy="76.078" r="3.925"/>
		<path style="fill:#D95700;" d="M60.716,56.513c-7.483,0-8.886,6.158-8.886,6.158h8.886h8.886
			C69.602,62.67,68.199,56.513,60.716,56.513z"/>
		<path style="fill:#BFA76F;" d="M68.277,62.67h-7.561h-7.561c0,0,0.702,5.313-2.027,9.198h9.588h9.588
			C67.575,67.983,68.277,62.67,68.277,62.67z"/>
		<path style="fill:#D95700;" d="M73.344,73.973c0,1.163-0.942,2.105-2.104,2.105H50.192c-1.162,0-2.104-0.942-2.104-2.105l0,0
			c0-1.162,0.942-2.104,2.104-2.104h21.047C72.401,71.868,73.344,72.811,73.344,73.973L73.344,73.973z"/>
	</g>
	<g>
		<polygon style="fill:#D95700;" points="121.432,93.596 97.743,93.596 97.743,103.483 97.743,113.37 121.432,113.37 
			112.441,103.483 		"/>
		<polygon style="fill:#853500;" points="107.777,106.586 97.743,113.37 97.743,106.586 		"/>
		<polygon style="fill:#D95700;" points="0,93.596 23.688,93.596 23.688,103.483 23.688,113.37 0,113.37 8.99,103.483 		"/>
		<rect x="13.654" y="86.812" style="fill:#FC6500;" width="94.123" height="19.774"/>
		<polygon style="fill:#853500;" points="13.654,106.586 23.688,113.37 23.688,106.586 		"/>
	</g>
	<path style="fill:#FC6500;" d="M96.747,47.424c0,0.988-0.801,1.789-1.789,1.789H26.474c-0.988,0-1.789-0.801-1.789-1.789l0,0
		c0-0.988,0.801-1.789,1.789-1.789h68.484C95.946,45.635,96.747,46.437,96.747,47.424L96.747,47.424z"/>
	<g style="opacity:0.2;">
		<path style="fill:#FFFFFF;" d="M50.192,71.868c-1.162,0-2.104,0.942-2.104,2.104c0,1.163,0.942,2.105,2.104,2.105h6.599
			c0,2.168,1.757,3.925,3.925,3.925V54.079c-1.344,0-2.433,1.089-2.433,2.433c0,0.083,0.016,0.163,0.025,0.245
			c-5.382,1.135-6.478,5.913-6.478,5.913h1.325c0,0,0.702,5.313-2.027,9.198H50.192z"/>
		<path style="fill:#FFFFFF;" d="M60.716,86.812h-15.08l-1.524-5.46h-1.655v-3.155h-1.208l-0.941-19.724h1.603v-3.155h1.485
			l1.529-6.104h15.792V21.822c-0.153,0-0.307,0.037-0.443,0.112L27.191,39.857c-0.208,0.112-0.356,0.298-0.413,0.516
			c-0.057,0.217-0.017,0.446,0.113,0.636l2.896,4.246c0.162,0.237,0.442,0.38,0.744,0.38h-4.058c-0.988,0-1.789,0.801-1.789,1.789
			c0,0.988,0.801,1.789,1.789,1.789h2.884l1.529,6.104h1.408v3.155h1.594l-0.941,19.724h-1.208v3.155H30.17l-1.524,5.46H13.654
			v6.784H0l8.99,9.887L0,113.37h23.688v-6.784h37.027L60.716,86.812L60.716,86.812z"/>
	</g>
</g>
<g>
</g>
<g>
</g>
<g>
</g>
<g>
</g>
<g>
</g>
<g>
</g>
<g>
</g>
<g>
</g>
<g>
</g>
<g>
</g>
<g>
</g>
<g>
</g>
<g>
</g>
<g>
</g>
<g>
</g>
</svg>
